<svg xmlns="http://www.w3.org/2000/svg" viewBox="0 0 711 1536" role="img" aria-label="合格！国語クエスト PR画像3">
<rect width="711" height="1536" fill="#fffdf7"/><rect x="35" y="40" width="641" height="1456" rx="44" fill="#fff" stroke="#1f2e4d" stroke-width="8"/>
<text x="356" y="128" text-anchor="middle" font-size="46" font-family="sans-serif" font-weight="900" fill="#14a886">問題を読み上げてくれるから</text><text x="356" y="235" text-anchor="middle" font-size="84" font-family="sans-serif" font-weight="900" fill="#e84d68">目と耳で</text><text x="356" y="330" text-anchor="middle" font-size="72" font-family="sans-serif" font-weight="900" fill="#ff9b21">楽しく覚える！</text>
<rect x="120" y="410" width="470" height="710" rx="45" fill="#f4f6ff" stroke="#1f2e4d" stroke-width="8"/><circle cx="250" cy="585" r="52" fill="#ffd84d"/><path d="M175 700h360" stroke="#1f2e4d" stroke-width="12" stroke-linecap="round"/><path d="M175 780h360" stroke="#1f2e4d" stroke-width="12" stroke-linecap="round"/><path d="M175 860h270" stroke="#1f2e4d" stroke-width="12" stroke-linecap="round"/><path d="M475 545c55 55 55 145 0 200" fill="none" stroke="#4f8cff" stroke-width="22" stroke-linecap="round"/><path d="M520 500c92 92 92 238 0 330" fill="none" stroke="#4f8cff" stroke-width="18" opacity=".55" stroke-linecap="round"/>
<circle cx="185" cy="1210" r="88" fill="#ffd7e4"/><text x="185" y="1224" text-anchor="middle" font-size="72" font-family="sans-serif">👀</text><circle cx="356" cy="1210" r="88" fill="#d8ecff"/><text x="356" y="1224" text-anchor="middle" font-size="72" font-family="sans-serif">🎧</text><circle cx="527" cy="1210" r="88" fill="#e2f8db"/><text x="527" y="1224" text-anchor="middle" font-size="72" font-family="sans-serif">💡</text>
<text x="356" y="1395" text-anchor="middle" font-size="42" font-family="sans-serif" font-weight="900" fill="#1f2e4d">イメージと音で記憶に定着！</text>
</svg>
