<svg xmlns="http://www.w3.org/2000/svg" viewBox="0 0 711 1536" role="img" aria-label="合格！国語クエスト PR画像4">
<rect width="711" height="1536" fill="#fffaf4"/><rect x="35" y="40" width="641" height="1456" rx="44" fill="#fff" stroke="#1f2e4d" stroke-width="8"/>
<text x="356" y="145" text-anchor="middle" font-size="46" font-family="sans-serif" font-weight="900" fill="#14a886">物語・説明文・論説・随筆・詩・短歌まで！</text><text x="356" y="260" text-anchor="middle" font-size="76" font-family="sans-serif" font-weight="900" fill="#e84d68">幅広い文章題で</text><text x="356" y="350" text-anchor="middle" font-size="70" font-family="sans-serif" font-weight="900" fill="#14a886">読解力が伸びる！</text>
<rect x="120" y="430" width="470" height="610" rx="40" fill="#fff5f8" stroke="#1f2e4d" stroke-width="8"/><path d="M180 520h350M180 600h350M180 680h300M180 760h330M180 840h260" stroke="#1f2e4d" stroke-width="12" stroke-linecap="round"/><rect x="175" y="900" width="360" height="82" rx="20" fill="#61d6b0"/><text x="356" y="955" text-anchor="middle" font-size="36" font-family="sans-serif" font-weight="900" fill="#fff">読解チェック</text>
<g font-family="sans-serif" font-weight="900" font-size="30" text-anchor="middle"><circle cx="126" cy="1195" r="58" fill="#e8fff5"/><text x="126" y="1206" fill="#14a886">物語</text><circle cx="238" cy="1195" r="58" fill="#fff0d8"/><text x="238" y="1206" fill="#ff9b21">説明</text><circle cx="350" cy="1195" r="58" fill="#e8edff"/><text x="350" y="1206" fill="#4f6fe8">論説</text><circle cx="462" cy="1195" r="58" fill="#f5e8ff"/><text x="462" y="1206" fill="#9355d9">随筆</text><circle cx="574" cy="1195" r="58" fill="#ffe8f1"/><text x="574" y="1206" fill="#e84d68">詩歌</text></g>
<text x="356" y="1390" text-anchor="middle" font-size="42" font-family="sans-serif" font-weight="900" fill="#1f2e4d">読解力を楽しく・着実に育てよう！</text>
</svg>
