<svg xmlns="http://www.w3.org/2000/svg" viewBox="0 0 711 1536" role="img" aria-label="合格！国語クエスト PR画像6">
<rect width="711" height="1536" fill="#fffdf7"/><rect x="35" y="40" width="641" height="1456" rx="44" fill="#fff" stroke="#1f2e4d" stroke-width="8"/>
<text x="356" y="130" text-anchor="middle" font-size="44" font-family="sans-serif" font-weight="900" fill="#fff" stroke="#a97a12" stroke-width="9" paint-order="stroke">世界ランキングをリアルタイム表示！</text><text x="356" y="245" text-anchor="middle" font-size="70" font-family="sans-serif" font-weight="900" fill="#295ee8">ライバルと競い合って</text><text x="356" y="335" text-anchor="middle" font-size="76" font-family="sans-serif" font-weight="900" fill="#e84d68">モチベもぐんぐんUP!</text>
<rect x="115" y="420" width="485" height="660" rx="45" fill="#f4f5ff" stroke="#1f2e4d" stroke-width="8"/><rect x="155" y="455" width="405" height="105" rx="26" fill="#6e59d9"/><text x="356" y="525" text-anchor="middle" font-size="56" font-family="sans-serif" font-weight="900" fill="#fff">128位</text><g font-family="sans-serif" font-size="34" font-weight="900"><text x="170" y="650" fill="#1f2e4d">1 🏆 あや</text><text x="530" y="650" text-anchor="end" fill="#e84d68">1000正答</text><text x="170" y="735" fill="#1f2e4d">2 🥈 ふみ</text><text x="530" y="735" text-anchor="end" fill="#e84d68">980正答</text><text x="170" y="820" fill="#1f2e4d">3 🥉 えいと</text><text x="530" y="820" text-anchor="end" fill="#e84d68">671正答</text><text x="170" y="940" fill="#295ee8">128 あなた</text><text x="530" y="940" text-anchor="end" fill="#295ee8">128正答</text></g>
<g font-family="sans-serif" font-weight="900" font-size="30" text-anchor="middle"><rect x="55" y="1170" width="145" height="135" rx="22" fill="#e8fff5" stroke="#1f2e4d" stroke-width="4"/><text x="128" y="1225">連続</text><text x="128" y="1270">日数</text><rect x="218" y="1170" width="145" height="135" rx="22" fill="#fff2d8" stroke="#1f2e4d" stroke-width="4"/><text x="291" y="1225">正解数</text><text x="291" y="1270">順位</text><rect x="381" y="1170" width="145" height="135" rx="22" fill="#ffe8f1" stroke="#1f2e4d" stroke-width="4"/><text x="454" y="1225">成長が</text><text x="454" y="1270">見える</text><rect x="544" y="1170" width="145" height="135" rx="22" fill="#e8f2ff" stroke="#1f2e4d" stroke-width="4"/><text x="617" y="1225">ライバル</text><text x="617" y="1270">競争</text></g>
<text x="356" y="1415" text-anchor="middle" font-size="42" font-family="sans-serif" font-weight="900" fill="#295ee8">ランキングでやる気アップ！</text>
</svg>
