<svg xmlns="http://www.w3.org/2000/svg" viewBox="0 0 711 1536" role="img" aria-label="合格！国語クエスト PR画像5">
<rect width="711" height="1536" fill="#fffaf7"/><rect x="35" y="40" width="641" height="1456" rx="44" fill="#fff" stroke="#1f2e4d" stroke-width="8"/>
<text x="356" y="140" text-anchor="middle" font-size="52" font-family="sans-serif" font-weight="900" fill="#e84d68">友達と対戦しながら</text><text x="356" y="255" text-anchor="middle" font-size="96" font-family="sans-serif" font-weight="900" fill="#14a886">共に学ぶ！</text><text x="356" y="330" text-anchor="middle" font-size="44" font-family="sans-serif" font-weight="900" fill="#1f2e4d">クイズバトルで楽しく力がつく！</text>
<rect x="110" y="420" width="490" height="620" rx="46" fill="#f8f5ff" stroke="#1f2e4d" stroke-width="8"/><rect x="155" y="510" width="400" height="80" rx="18" fill="#fff" stroke="#e84d68" stroke-width="5"/><text x="356" y="563" text-anchor="middle" font-size="34" font-family="sans-serif" fill="#999">例：しゃかいチャレンジ</text><rect x="155" y="640" width="120" height="72" rx="16" fill="#ff9c92"/><rect x="295" y="640" width="120" height="72" rx="16" fill="#fff"/><rect x="435" y="640" width="120" height="72" rx="16" fill="#fff"/><text x="215" y="687" text-anchor="middle" font-size="30" font-family="sans-serif" font-weight="900" fill="#fff">10問</text><text x="356" y="820" text-anchor="middle" font-size="42" font-family="sans-serif" font-weight="900" fill="#1f2e4d">VS</text><circle cx="250" cy="880" r="70" fill="#ffd84d"/><circle cx="462" cy="880" r="70" fill="#61d6b0"/>
<g font-family="sans-serif" font-weight="900" font-size="30" text-anchor="middle"><rect x="55" y="1170" width="145" height="135" rx="22" fill="#e8f2ff" stroke="#1f2e4d" stroke-width="4"/><text x="128" y="1225">やる気</text><text x="128" y="1270">UP</text><rect x="218" y="1170" width="145" height="135" rx="22" fill="#e8fff5" stroke="#1f2e4d" stroke-width="4"/><text x="291" y="1225">実力</text><text x="291" y="1270">UP</text><rect x="381" y="1170" width="145" height="135" rx="22" fill="#fff2d8" stroke="#1f2e4d" stroke-width="4"/><text x="454" y="1225">友達と</text><text x="454" y="1270">学ぶ</text><rect x="544" y="1170" width="145" height="135" rx="22" fill="#ffe8f1" stroke="#1f2e4d" stroke-width="4"/><text x="617" y="1225">学習</text><text x="617" y="1270">定着</text></g>
<text x="356" y="1410" text-anchor="middle" font-size="42" font-family="sans-serif" font-weight="900" fill="#e84d68">対戦だから、続く！伸びる！</text>
</svg>
